<svg width="1440" height="924" viewBox="0 0 1440 924" preserveAspectRatio="xMinYMax slice" xmlns="http://www.w3.org/2000/svg" xmlns:xlink="http://www.w3.org/1999/xlink"><desc>Background lines.</desc><defs><path id="a" d="M0 0h1440v924H0z"/><linearGradient x1="50%" y1="6.8%" x2="50%" y2="164.7%" id="c"><stop stop-color="#FDFDFE" offset="0%"/><stop stop-color="#FDFDFE" stop-opacity="0" offset="100%"/></linearGradient></defs><g opacity=".6" fill="none" fill-rule="evenodd" transform="translate(0 100)"><mask id="b" fill="#fff"><use xlink:href="#a"/></mask><g mask="url(#b)" stroke-linecap="square" stroke="#414960"><path d="M1100 923V-101M1050 924V-100M1000 924V-100M950 924V-100M1300 924V-100M1250 924V-100M1200 924V-100M1150 924V-100M1400 924V-100M1350 924V-100M149 924V-100M99 924V-100M49 924V-100M-1 924V-100M349 924V-100M299 924V-100M249 924V-100M199 924V-100M549 924V-100M499 924V-100M449 924V-100M399 924V-100M749 924V-100M699 924V-100M649 924V-100M599 924V-100M899 924V-100M849 924V-100M799 924V-100"/></g><g mask="url(#b)" stroke-linecap="square" stroke="#414960"><path d="M0 150h1440M0 100h1440M0 50h1440M0 350h1440M0 300h1440M0 250h1440M0 200h1440M0 550h1440M0 500h1440M0 450h1440M0 400h1440M0 750h1440M0 700h1440M0 650h1440M0 600h1440M0 900h1440M0 850h1440M0 800h1440"/></g><path fill="url(#c)" mask="url(#b)" d="M0 0h1440v1000H0z"/></g></svg>
