
<svg width="287px" height="83px" viewBox="42 -7 287 83" version="1.1" xmlns="http://www.w3.org/2000/svg" xmlns:xlink="http://www.w3.org/1999/xlink">
    <desc>UpWave logo.</desc>
    <defs>
        <circle id="path-1" cx="40" cy="40" r="40"></circle>
        <path d="M9.24235848,60.917414 C-10.8042285,56.6531587 8.09867643,49.882523 8.09867643,49.882523 C8.09867643,49.882523 23.4597163,29.6527551 39.0966228,29.6527551 C54.7335293,29.6527551 65.2249248,45.2337129 76.6292905,37.6329191 C88.0336561,30.0321253 89.1362037,18.4723997 101.732441,16.8893065 C114.328679,15.3062133 133.303287,22.7996239 133.303287,22.7996239 L125.001185,61.4837346 C125.001185,61.4837346 29.2889454,65.1816692 9.24235848,60.917414 Z" id="path-3"></path>
        <filter x="-50%" y="-50%" width="200%" height="200%" filterUnits="objectBoundingBox" id="filter-4">
            <feOffset dx="0" dy="0" in="SourceAlpha" result="shadowOffsetOuter1"></feOffset>
            <feGaussianBlur stdDeviation="1" in="shadowOffsetOuter1" result="shadowBlurOuter1"></feGaussianBlur>
            <feComposite in="shadowBlurOuter1" in2="SourceAlpha" operator="out" result="shadowBlurOuter1"></feComposite>
            <feColorMatrix values="0 0 0 0 0   0 0 0 0 0   0 0 0 0 0  0 0 0 0.25 0" type="matrix" in="shadowBlurOuter1"></feColorMatrix>
        </filter>
        <path d="M8.45485972,41.6985602 C8.45485972,41.6985602 9.9272292,34.9739303 20.8231094,32.8959165 C31.7189896,30.8179026 35.9915366,41.6985602 47.6167366,41.6985602 C59.2419366,41.6985602 63.4046689,25.9522508 76.9137774,25.9522508 C90.422886,25.9522508 100.34597,35.4155175 110.460939,24.2079978 C120.575907,13.0004781 129.194921,0.0614467207 129.194921,0.0614467207 L129.194921,59.6874271 L8.45485972,59.6874271 L8.45485972,41.6985602 Z" id="path-5"></path>
        <filter x="-50%" y="-50%" width="200%" height="200%" filterUnits="objectBoundingBox" id="filter-6">
            <feOffset dx="0" dy="0" in="SourceAlpha" result="shadowOffsetOuter1"></feOffset>
            <feGaussianBlur stdDeviation="1" in="shadowOffsetOuter1" result="shadowBlurOuter1"></feGaussianBlur>
            <feComposite in="shadowBlurOuter1" in2="SourceAlpha" operator="out" result="shadowBlurOuter1"></feComposite>
            <feColorMatrix values="0 0 0 0 0   0 0 0 0 0   0 0 0 0 0  0 0 0 0.25 0" type="matrix" in="shadowBlurOuter1"></feColorMatrix>
        </filter>
        <path d="M1.34664851,53.8455471 C1.34664851,53.8455471 18.5932881,39.3437854 33.9013018,37.8824671 C49.2093154,36.4211489 53.8480752,48.9005407 81.3267828,42.4032131 C108.80549,35.9058855 122.595787,22.274662 122.595787,22.274662 L120.595787,61.902826 L3.22620988,63.4021007 L1.34664851,53.8455471 Z" id="path-7"></path>
        <filter x="-50%" y="-50%" width="200%" height="200%" filterUnits="objectBoundingBox" id="filter-8">
            <feOffset dx="0" dy="0" in="SourceAlpha" result="shadowOffsetOuter1"></feOffset>
            <feGaussianBlur stdDeviation="1" in="shadowOffsetOuter1" result="shadowBlurOuter1"></feGaussianBlur>
            <feComposite in="shadowBlurOuter1" in2="SourceAlpha" operator="out" result="shadowBlurOuter1"></feComposite>
            <feColorMatrix values="0 0 0 0 0   0 0 0 0 0   0 0 0 0 0  0 0 0 0.25 0" type="matrix" in="shadowBlurOuter1"></feColorMatrix>
        </filter>
    </defs>
    <g id="Logo" stroke="none" stroke-width="1" fill="none" fill-rule="evenodd" transform="translate(42.000000, -7.000000)">
        <g id="Logo-waves">
            <mask id="mask-2" fill="white">
                <use xlink:href="#path-1"></use>
            </mask>
            <use id="Mask" fill="#FDFDFE" xlink:href="#path-1"></use>
            <g mask="url(#mask-2)">
                <g transform="translate(-41.333333, 17.333333)">
                    <g id="Path-2">
                        <use fill="black" fill-opacity="1" filter="url(#filter-4)" xlink:href="#path-3"></use>
                        <use fill-opacity="0.9" fill="#6DCDE9" fill-rule="evenodd" xlink:href="#path-3"></use>
                    </g>
                    <g id="Path">
                        <use fill="black" fill-opacity="1" filter="url(#filter-6)" xlink:href="#path-5"></use>
                        <use fill-opacity="0.9" fill="#F17174" fill-rule="evenodd" xlink:href="#path-5"></use>
                    </g>
                    <g id="Path-3">
                        <use fill="black" fill-opacity="1" filter="url(#filter-8)" xlink:href="#path-7"></use>
                        <use fill-opacity="0.83" fill="#29304F" fill-rule="evenodd" xlink:href="#path-7"></use>
                    </g>
                </g>
            </g>
        </g>
        <!-- <text id="UpWave" font-family="Varela" font-size="48" font-weight="normal" fill="#414960">
            <tspan x="92" y="69">UpWave</tspan>
        </text> -->
    </g>
</svg>
