<svg xmlns="http://www.w3.org/2000/svg" width="80" height="80" viewBox="0 0 80 80" xmlns:xlink="http://www.w3.org/1999/xlink">
  <defs>
    <circle id="a" cx="40" cy="40" r="40"/>
  </defs>
  <g fill="none" fill-rule="evenodd">
    <mask id="b" fill="#fff">
      <use xlink:href="#a"/>
    </mask>
    <use fill="#FDFDFE" xlink:href="#a"/>
    <g mask="url(#b)">
      <path fill="#6DCDE9" d="M-32.09 78.25c-20.048-4.264-1.145-11.034-1.145-11.034s15.36-20.23 30.998-20.23c15.637 0 26.13 15.58 37.533 7.98 11.404-7.6 11.84-23.408 27.128-26.06 15.288-2.65 19.33 1.566 21.756 7.264 8.196 19.258 0 49.023 0 49.023s-96.224-2.678-116.27-6.942z"/>
      <path fill="#F17174" d="M-32.878 59.032s1.472-6.725 12.368-8.803c10.896-2.08 15.168 8.8 26.793 8.8 11.627 0 15.787-15.75 29.297-15.75s23.433 9.462 33.548-1.746C79.243 30.33 87.862 17.392 87.862 17.392V85.01H-20.51l-12.368-25.98z"/>
      <path fill="#2B485F" d="M-39.987 71.18S-22.74 56.676-7.432 55.215c15.308-1.462 19.947 11.018 47.425 4.52 27.48-6.497 41.27-20.128 41.27-20.128v49.69l-119.37-8.563-1.88-9.556z"/>
    </g>
  </g>
</svg>
