<svg width="1920px" height="612px" viewBox="0 0 1920 612" preserveAspectRatio="xMinYMax meet" class="acceleration" version="2.0" xmlns="http://www.w3.org/2000/svg">
  <path fill-opacity="0.8" fill="#F17174" fill-rule="evenodd" d="M0,595 C0,595 106,581 232,563 C358,544 502,534 673,547 C845,561 924,566 1171,566 C1418,566 1431,531 1762,529 C1899,527.905906 1920,529 1920,529 L1920,612 L0,612 L0,595 Z" id="startPath"></path>
  <path style="display:none" d="M0,446 C0,446 60,383 171,383 C282,383 418,497 630,497 C843,497 919,209 1166,209 C1413,209 1579,381 1780,177 C1892,63 1920,0 1920,0 L1920,612 L0,612 L0,446 Z" id="endPath"></path>
</svg>
