<svg width="80px" height="80px" viewBox="103 110 80 80" version="1.1" xmlns="http://www.w3.org/2000/svg" xmlns:xlink="http://www.w3.org/1999/xlink">
    <desc>Upwave logo.</desc>
    <defs>
        <circle id="path-1" cx="40" cy="40" r="40"></circle>
    </defs>
    <g id="Logo" stroke="none" stroke-width="1" fill="none" fill-rule="evenodd" transform="translate(103.000000, 110.000000)">
        <g id="Logo-waves">
            <mask id="mask-2" fill="white">
                <use xlink:href="#path-1"></use>
            </mask>
            <use id="Mask" fill="#FDFDFE" xlink:href="#path-1"></use>
            <g mask="url(#mask-2)">
                <g transform="translate(-41.333333, 17.333333)">
                    <path d="M9.24235848,60.917414 C-10.8042285,56.6531587 8.09867643,49.882523 8.09867643,49.882523 C8.09867643,49.882523 23.4597163,29.6527551 39.0966228,29.6527551 C54.7335293,29.6527551 65.2249248,45.2337129 76.6292905,37.6329191 C88.0336561,30.0321253 88.4696221,14.2245112 103.757598,11.572932 C119.045574,8.92135281 123.087874,13.1388759 125.513218,18.8371074 C133.709668,38.0942772 125.513218,67.8594528 125.513218,67.8594528 C125.513218,67.8594528 29.2889454,65.1816692 9.24235848,60.917414 Z" id="blueWave" fill="#6DCDE9"></path>
                    <path d="M8.45485972,41.6985602 C8.45485972,41.6985602 9.9272292,34.9739303 20.8231094,32.8959165 C31.7189896,30.8179026 35.9915366,41.6985602 47.6167366,41.6985602 C59.2419366,41.6985602 63.4046689,25.9522508 76.9137774,25.9522508 C90.422886,25.9522508 100.34597,35.4155175 110.460939,24.2079978 C120.575907,13.0004781 129.194921,0.0614467207 129.194921,0.0614467207 L129.194921,67.6752426 L20.8231094,67.6752426 L8.45485972,41.6985602 Z" id="redWave" fill="#F17174"></path>
                    <path d="M1.34664851,53.8455471 C1.34664851,53.8455471 18.5932881,39.3437854 33.9013018,37.8824671 C49.2093154,36.4211489 53.8480752,48.9005407 81.3267828,42.4032131 C108.80549,35.9058855 122.595787,22.274662 122.595787,22.274662 L122.595787,71.9651296 L3.22620988,63.4021007 L1.34664851,53.8455471 Z" id="blackWave" fill="#29304F"></path>
                </g>
            </g>
        </g>
    </g>
</svg>
